<svg width="1169" height="807" viewBox="0 0 1169 807" fill="none" xmlns="http://www.w3.org/2000/svg">
<path d="M840 253.08V256.51C838.94 266.81 829.78 270.59 822.56 275.75C796.033 294.683 770.07 315.407 744.67 337.92C690.73 385.72 641.85 438 600.42 496.46C598.68 498.92 597.313 500.73 596.32 501.89C590.35 508.86 581.44 510.95 573.73 506.16C569.99 503.83 566.41 499.38 563.7 495.56C525.92 442.38 483.4 393.313 436.14 348.36C408.98 322.54 380.28 299.39 349.18 280.58C340.27 275.19 330.91 269.03 328 258.5V251.99C329.3 243.56 337.09 237.74 343.98 234.04C370.05 220.05 393.17 200.29 414.25 180.49C461.763 135.837 506.5 88.5666 548.46 38.68C554.38 31.64 559.52 24.15 564.05 16.77C567.39 11.31 572.78 4.61997 579.41 3.57997C588 2.21997 593.06 5.26997 599.19 12.31C604.03 17.86 608.56 25.49 612.89 31.01C654.56 84.17 702.75 138.21 754.55 185.22C778.4 206.86 803.68 226.45 831.98 241.99C836.64 244.55 839.313 248.247 840 253.08ZM576.2 442.83C587.21 448.11 596.2 442.33 605.02 436.32C613.913 430.267 622.977 423.397 632.21 415.71C660.2 392.41 686.5 367.58 711.91 341.52C725.93 327.147 739.14 312.057 751.54 296.25C756.267 290.223 761.273 282.327 766.56 272.56C771.73 262.99 771.91 255.25 768.11 245.42C766.663 241.693 765.387 238.873 764.28 236.96C756.113 222.867 746.45 209.283 735.29 196.21C701.95 157.18 665.31 120.95 624.6 90.43C613.27 81.94 588.46 63.33 573.7 70.18C564.607 74.4 554.733 80.78 544.08 89.32C499.553 124.993 458.98 164.677 422.36 208.37C412.09 220.63 400.18 235.66 394.52 250.58C391.53 258.43 393.73 265.45 397.95 273.13C403.203 282.703 409.457 291.833 416.71 300.52C439.03 327.24 462.79 351.27 487.8 374.84C508.267 394.127 529.847 412.09 552.54 428.73C559.74 434.01 567.627 438.71 576.2 442.83Z" fill="#00679A"/>
<path d="M758.32 265.06C754.613 273.013 750.05 280.46 744.63 287.4C731.437 304.3 717.343 320.403 702.35 335.71C671.73 366.96 639.41 397.88 604.18 423.92C599.04 427.72 593.617 431.05 587.91 433.91C584.24 435.75 576.78 431.36 573.59 429.4C563.76 423.37 554.54 417.09 545.19 409.68C506.057 378.64 469.873 344.45 436.64 307.11C427.827 297.21 419.653 286.807 412.12 275.9C409.36 271.907 407.013 267.69 405.08 263.25C403.45 259.52 403.58 256.66 405.27 252.76C411.13 239.28 422.32 225.21 432.33 213.4C465.217 174.607 501.19 138.887 540.25 106.24C549.59 98.4333 559.377 91.2367 569.61 84.65C574.95 81.21 580.01 78.19 585.73 80C597.78 83.83 609.58 92.46 619.61 100.15C661 131.9 699.47 169.66 732.47 210.04C742.2 221.94 752.55 235.52 758.38 249.82C760.573 255.193 760.553 260.273 758.32 265.06ZM592.5 201.9C592.499 201.857 592.506 201.813 592.521 201.773C592.537 201.732 592.56 201.695 592.59 201.664C592.619 201.632 592.655 201.607 592.694 201.589C592.734 201.571 592.777 201.561 592.82 201.56L614.81 201.11C614.864 201.109 614.918 201.096 614.965 201.069C615.013 201.043 615.053 201.006 615.083 200.96C615.113 200.915 615.131 200.863 615.135 200.809C615.14 200.754 615.131 200.7 615.11 200.65L581.17 120.76C581.144 120.697 581.099 120.644 581.042 120.608C580.984 120.572 580.917 120.554 580.849 120.557C580.782 120.561 580.717 120.585 580.663 120.626C580.609 120.668 580.57 120.725 580.55 120.79L554.07 200.75C554.054 200.799 554.051 200.851 554.059 200.902C554.067 200.953 554.087 201.001 554.117 201.043C554.147 201.085 554.186 201.119 554.232 201.143C554.278 201.167 554.328 201.179 554.38 201.18L571.55 201.56C571.593 201.561 571.636 201.571 571.676 201.589C571.715 201.607 571.751 201.632 571.78 201.664C571.81 201.695 571.833 201.732 571.849 201.773C571.864 201.813 571.871 201.857 571.87 201.9L569.41 278.19C569.409 278.234 569.416 278.278 569.432 278.319C569.448 278.361 569.472 278.398 569.503 278.43C569.534 278.462 569.571 278.487 569.611 278.504C569.652 278.521 569.696 278.53 569.74 278.53L594.41 278.52C594.454 278.52 594.498 278.511 594.539 278.494C594.579 278.477 594.616 278.452 594.647 278.42C594.678 278.388 594.702 278.351 594.718 278.309C594.734 278.268 594.741 278.224 594.74 278.18L592.5 201.9ZM663.66 234.61L670.25 232.56C670.321 232.541 670.384 232.499 670.428 232.44C670.472 232.381 670.496 232.31 670.495 232.236C670.493 232.163 670.468 232.092 670.422 232.034C670.375 231.977 670.312 231.937 670.24 231.92L621.75 218.36C621.661 218.336 621.567 218.336 621.479 218.36C621.39 218.385 621.309 218.433 621.246 218.5C621.182 218.566 621.138 218.649 621.117 218.739C621.097 218.829 621.101 218.922 621.13 219.01L626.95 237C627.083 237.413 627.37 237.62 627.81 237.62C632.603 237.56 637.39 237.36 642.17 237.02C643.623 236.913 644.947 237.153 646.14 237.74C653.16 241.15 665.76 249.72 664.39 258.66C662.58 270.5 643.64 276.25 633.74 278.68C606.19 285.44 576.07 287.92 549 282.26C539.26 280.23 526.59 275.61 518.12 269.27C494.1 251.3 536.87 236.3 547.81 232.25C548.243 232.09 548.26 231.893 547.86 231.66L521.08 215.93C520.813 215.77 520.533 215.74 520.24 215.84C506.12 220.45 465.57 235.18 469.49 255.53C472.61 271.72 503.28 282.91 516.62 287.22C522.187 289.02 528.667 290.547 536.06 291.8C557.56 295.46 580.12 296.853 603.74 295.98C622.7 295.273 640.14 290.987 656.06 283.12C665.31 278.55 680.56 270.32 681.99 259.4C683.64 246.85 671.72 241.63 663.5 235.59C662.907 235.15 662.96 234.823 663.66 234.61ZM569.62 302.46C569.537 302.462 569.457 302.495 569.396 302.552C569.335 302.609 569.297 302.687 569.29 302.77L563.64 381.08C563.637 381.126 563.644 381.173 563.66 381.216C563.676 381.26 563.7 381.3 563.732 381.333C563.764 381.367 563.802 381.394 563.845 381.412C563.888 381.431 563.934 381.44 563.98 381.44H598.64C598.686 381.44 598.731 381.431 598.772 381.413C598.814 381.396 598.852 381.37 598.884 381.337C598.916 381.304 598.941 381.266 598.957 381.223C598.974 381.181 598.981 381.135 598.98 381.09L596.08 302.56C596.077 302.472 596.04 302.388 595.977 302.326C595.913 302.264 595.828 302.23 595.74 302.23L569.62 302.46Z" fill="#00679A"/>
<path d="M0.375 786V603.25H35.5V786H0.375ZM150.5 786H68.375V603.25H150.5V633.125H103.5V676.125H147.25V706.125H103.5V755.5H150.5V786ZM259.75 786H177.625V603.25H259.75V633.125H212.75V676.125H256.5V706.125H212.75V755.5H259.75V786ZM369 786H286.875V603.25H369V633.125H322V676.125H365.75V706.125H322V755.5H369V786ZM600.625 692.25C600.625 702 599.708 710.833 597.875 718.75C596.042 726.667 593.458 733.5 590.125 739.25C586.875 744.917 582.958 749.292 578.375 752.375C573.792 755.375 568.75 756.875 563.25 756.875C556.417 756.875 550.958 755.167 546.875 751.75C542.792 748.333 539.958 743.458 538.375 737.125H536.875C533.958 743.875 530.458 748.875 526.375 752.125C522.375 755.292 517.75 756.875 512.5 756.875C501.75 756.875 493.417 752.583 487.5 744C481.667 735.417 478.75 723.375 478.75 707.875C478.75 695.875 480.542 685.417 484.125 676.5C487.792 667.583 493.042 660.708 499.875 655.875C506.708 650.958 514.833 648.5 524.25 648.5C529.25 648.5 534.583 649.125 540.25 650.375C545.917 651.542 551.167 653.125 556 655.125L554 708.125C553.917 710.542 553.792 713.042 553.625 715.625C553.542 718.208 553.5 720.583 553.5 722.75C553.5 727.25 554.25 730.625 555.75 732.875C557.25 735.042 559.333 736.125 562 736.125C565 736.125 567.542 734.667 569.625 731.75C571.792 728.833 573.417 724.125 574.5 717.625C575.667 711.125 576.25 702.5 576.25 691.75C576.333 678.083 574.292 666 570.125 655.5C565.958 644.917 559.792 636.667 551.625 630.75C543.542 624.75 533.583 621.792 521.75 621.875C511.417 621.875 502.417 624.208 494.75 628.875C487.083 633.458 480.667 639.792 475.5 647.875C470.417 655.958 466.583 665.292 464 675.875C461.5 686.375 460.25 697.583 460.25 709.5C460.25 724.583 462.417 737.833 466.75 749.25C471.083 760.583 477.583 769.417 486.25 775.75C495 782.083 506 785.25 519.25 785.25C526.667 785.25 534.458 784.25 542.625 782.25C550.792 780.25 558.417 777.583 565.5 774.25V796.5C558.667 799.667 551.458 802.083 543.875 803.75C536.292 805.417 528.167 806.25 519.5 806.25C501.667 806.25 486.542 802.458 474.125 794.875C461.708 787.292 452.25 776.375 445.75 762.125C439.25 747.875 436 730.75 436 710.75C436 694 438.042 678.875 442.125 665.375C446.292 651.792 452.167 640.208 459.75 630.625C467.333 621.042 476.375 613.708 486.875 608.625C497.375 603.542 509 601.042 521.75 601.125C537.833 601.125 551.75 605.042 563.5 612.875C575.333 620.625 584.458 631.375 590.875 645.125C597.375 658.792 600.625 674.5 600.625 692.25ZM504.375 708.125C504.375 717.708 505.375 724.792 507.375 729.375C509.458 733.875 512.292 736.125 515.875 736.125C519.792 736.125 522.75 733.167 524.75 727.25C526.75 721.25 528.125 710.875 528.875 696.125L530.25 670C529.083 669.583 527.958 669.333 526.875 669.25C525.792 669.083 524.667 669 523.5 669C519.583 669 516.167 670.542 513.25 673.625C510.417 676.708 508.208 681.167 506.625 687C505.125 692.833 504.375 699.875 504.375 708.125ZM785.25 603.25V725.875C785.25 739.875 783.083 751.5 778.75 760.75C774.417 770 768.042 776.958 759.625 781.625C751.208 786.208 740.792 788.5 728.375 788.5C710.292 788.5 696.375 783.417 686.625 773.25C676.958 763 672.125 747.458 672.125 726.625V603.25H707.125V725.375C707.125 736.958 708.958 745.25 712.625 750.25C716.292 755.167 721.625 757.625 728.625 757.625C733.542 757.625 737.583 756.583 740.75 754.5C744 752.333 746.417 748.875 748 744.125C749.667 739.375 750.5 733.042 750.5 725.125V603.25H785.25ZM879.875 630.875C874.542 630.875 869.875 632.458 865.875 635.625C861.875 638.792 858.542 643.292 855.875 649.125C853.292 654.875 851.333 661.667 850 669.5C848.75 677.333 848.125 685.875 848.125 695.125C848.125 708.708 849.417 720.208 852 729.625C854.583 738.958 858.375 746.042 863.375 750.875C868.375 755.708 874.458 758.125 881.625 758.125C887.292 758.125 892.667 757.167 897.75 755.25C902.833 753.333 907.875 751.042 912.875 748.375V779.625C907.625 782.542 901.958 784.75 895.875 786.25C889.875 787.75 883.417 788.5 876.5 788.5C862.75 788.5 851.042 784.875 841.375 777.625C831.792 770.292 824.458 759.667 819.375 745.75C814.292 731.75 811.75 714.792 811.75 694.875C811.75 681.208 813.167 668.667 816 657.25C818.917 645.75 823.167 635.792 828.75 627.375C834.333 618.875 841.167 612.292 849.25 607.625C857.417 602.958 866.75 600.625 877.25 600.625C884.583 600.625 891.667 601.542 898.5 603.375C905.333 605.208 911.917 608.042 918.25 611.875L908.25 640.875C903.75 637.792 899.208 635.375 894.625 633.625C890.042 631.792 885.125 630.875 879.875 630.875ZM1029 732.5C1029 743.5 1026.79 753.208 1022.38 761.625C1017.96 770.042 1011.71 776.625 1003.62 781.375C995.625 786.125 986.167 788.5 975.25 788.5C970.167 788.5 965.25 788.167 960.5 787.5C955.75 786.917 951.083 785.917 946.5 784.5C941.917 783 937.333 781.042 932.75 778.625V742.75C939.417 747.083 946.333 750.375 953.5 752.625C960.667 754.875 967.292 756 973.375 756C977.875 756 981.583 755.125 984.5 753.375C987.5 751.625 989.708 749.25 991.125 746.25C992.625 743.25 993.375 739.875 993.375 736.125C993.375 732.125 992.75 728.625 991.5 725.625C990.25 722.542 987.833 719.5 984.25 716.5C980.75 713.417 975.583 709.875 968.75 705.875C963.417 702.708 958.583 699.458 954.25 696.125C950 692.792 946.333 689.125 943.25 685.125C940.25 681.042 937.958 676.333 936.375 671C934.792 665.667 934 659.375 934 652.125C933.917 641.792 935.917 632.75 940 625C944.167 617.25 950.125 611.25 957.875 607C965.708 602.667 975.083 600.542 986 600.625C993.417 600.625 1000.67 601.625 1007.75 603.625C1014.92 605.625 1021.79 608.458 1028.38 612.125L1018.75 643.125C1012.83 639.542 1007.25 636.917 1002 635.25C996.75 633.5 991.833 632.625 987.25 632.625C983.25 632.625 979.875 633.417 977.125 635C974.458 636.5 972.417 638.583 971 641.25C969.667 643.917 969 646.958 969 650.375C969 654.708 969.667 658.375 971 661.375C972.333 664.375 974.833 667.333 978.5 670.25C982.25 673.083 987.625 676.5 994.625 680.5C1002.21 684.917 1008.54 689.625 1013.62 694.625C1018.71 699.542 1022.54 705.083 1025.12 711.25C1027.71 717.333 1029 724.417 1029 732.5ZM1168.88 691.25C1168.88 711.667 1166.04 728.917 1160.38 743C1154.79 757.083 1146.58 767.792 1135.75 775.125C1125 782.375 1111.79 786 1096.12 786H1053.12V603.25H1098.75C1113.75 603.25 1126.46 606.625 1136.88 613.375C1147.38 620.125 1155.33 630.042 1160.75 643.125C1166.17 656.208 1168.88 672.25 1168.88 691.25ZM1132.75 692.875C1132.75 679.208 1131.46 668 1128.88 659.25C1126.29 650.5 1122.42 644.042 1117.25 639.875C1112.17 635.708 1105.83 633.625 1098.25 633.625H1088.25V755.25H1095.88C1108.54 755.25 1117.83 750.125 1123.75 739.875C1129.75 729.625 1132.75 713.958 1132.75 692.875Z" fill="#00679A"/>
</svg>
