<svg xmlns="http://www.w3.org/2000/svg" version="1.1" viewBox="0.00 0.00 512.00 512.00">
<path fill="#00679a" d="
  M 512.00 253.08
  L 512.00 256.51
  C 510.94 266.81 501.78 270.59 494.56 275.75
  Q 454.77 304.15 416.67 337.92
  C 362.73 385.72 313.85 438.00 272.42 496.46
  Q 269.81 500.15 268.32 501.89
  C 262.35 508.86 253.44 510.95 245.73 506.16
  C 241.99 503.83 238.41 499.38 235.70 495.56
  Q 179.03 415.79 108.14 348.36
  C 80.98 322.54 52.28 299.39 21.18 280.58
  C 12.27 275.19 2.91 269.03 0.00 258.50
  L 0.00 251.99
  C 1.30 243.56 9.09 237.74 15.98 234.04
  C 42.05 220.05 65.17 200.29 86.25 180.49
  Q 157.52 113.51 220.46 38.68
  C 226.38 31.64 231.52 24.15 236.05 16.77
  C 239.39 11.31 244.78 4.62 251.41 3.58
  C 260.00 2.22 265.06 5.27 271.19 12.31
  C 276.03 17.86 280.56 25.49 284.89 31.01
  C 326.56 84.17 374.75 138.21 426.55 185.22
  C 450.40 206.86 475.68 226.45 503.98 241.99
  Q 510.97 245.83 512.00 253.08
  Z
  M 248.20 442.83
  C 259.21 448.11 268.20 442.33 277.02 436.32
  Q 290.36 427.24 304.21 415.71
  C 332.20 392.41 358.50 367.58 383.91 341.52
  Q 404.94 319.96 423.54 296.25
  Q 430.63 287.21 438.56 272.56
  C 443.73 262.99 443.91 255.25 440.11 245.42
  Q 437.94 239.83 436.28 236.96
  Q 424.03 215.82 407.29 196.21
  C 373.95 157.18 337.31 120.95 296.60 90.43
  C 285.27 81.94 260.46 63.33 245.70 70.18
  Q 232.06 76.51 216.08 89.32
  Q 149.29 142.83 94.36 208.37
  C 84.09 220.63 72.18 235.66 66.52 250.58
  C 63.53 258.43 65.73 265.45 69.95 273.13
  Q 77.83 287.49 88.71 300.52
  C 111.03 327.24 134.79 351.27 159.80 374.84
  Q 190.50 403.77 224.54 428.73
  Q 235.34 436.65 248.20 442.83
  Z"
/>
<path fill="#00679a" d="
  M 430.32 265.06
  Q 424.76 276.99 416.63 287.40
  Q 396.84 312.75 374.35 335.71
  C 343.73 366.96 311.41 397.88 276.18 423.92
  Q 268.47 429.62 259.91 433.91
  C 256.24 435.75 248.78 431.36 245.59 429.40
  C 235.76 423.37 226.54 417.09 217.19 409.68
  Q 158.49 363.12 108.64 307.11
  Q 95.42 292.26 84.12 275.90
  Q 79.98 269.91 77.08 263.25
  C 75.45 259.52 75.58 256.66 77.27 252.76
  C 83.13 239.28 94.32 225.21 104.33 213.40
  Q 153.66 155.21 212.25 106.24
  Q 226.26 94.53 241.61 84.65
  C 246.95 81.21 252.01 78.19 257.73 80.00
  C 269.78 83.83 281.58 92.46 291.61 100.15
  C 333.00 131.90 371.47 169.66 404.47 210.04
  C 414.20 221.94 424.55 235.52 430.38 249.82
  Q 433.67 257.88 430.32 265.06
  Z
  M 264.50 201.90
  A 0.33 0.33 0.0 0 1 264.82 201.56
  L 286.81 201.11
  A 0.33 0.33 0.0 0 0 287.11 200.65
  L 253.17 120.76
  A 0.33 0.33 0.0 0 0 252.55 120.79
  L 226.07 200.75
  A 0.33 0.33 0.0 0 0 226.38 201.18
  L 243.55 201.56
  A 0.33 0.33 0.0 0 1 243.87 201.90
  L 241.41 278.19
  A 0.33 0.33 0.0 0 0 241.74 278.53
  L 266.41 278.52
  A 0.33 0.33 0.0 0 0 266.74 278.18
  L 264.50 201.90
  Z
  M 335.66 234.61
  L 342.25 232.56
  A 0.33 0.33 0.0 0 0 342.24 231.92
  L 293.75 218.36
  A 0.51 0.51 0.0 0 0 293.13 219.01
  L 298.95 237.00
  Q 299.15 237.62 299.81 237.62
  Q 307.00 237.53 314.17 237.02
  Q 316.35 236.86 318.14 237.74
  C 325.16 241.15 337.76 249.72 336.39 258.66
  C 334.58 270.50 315.64 276.25 305.74 278.68
  C 278.19 285.44 248.07 287.92 221.00 282.26
  C 211.26 280.23 198.59 275.61 190.12 269.27
  C 166.10 251.30 208.87 236.30 219.81 232.25
  Q 220.46 232.01 219.86 231.66
  L 193.08 215.93
  Q 192.68 215.69 192.24 215.84
  C 178.12 220.45 137.57 235.18 141.49 255.53
  C 144.61 271.72 175.28 282.91 188.62 287.22
  Q 196.97 289.92 208.06 291.80
  Q 240.31 297.29 275.74 295.98
  Q 304.18 294.92 328.06 283.12
  C 337.31 278.55 352.56 270.32 353.99 259.40
  C 355.64 246.85 343.72 241.63 335.50 235.59
  Q 334.61 234.93 335.66 234.61
  Z
  M 241.62 302.46
  A 0.34 0.34 0.0 0 0 241.29 302.77
  L 235.64 381.08
  A 0.34 0.34 0.0 0 0 235.98 381.44
  L 270.64 381.44
  A 0.34 0.34 0.0 0 0 270.98 381.09
  L 268.08 302.56
  A 0.34 0.34 0.0 0 0 267.74 302.23
  L 241.62 302.46
  Z"
/>
</svg>
